<svg width="172" height="51" viewBox="0 0 172 51" fill="none" xmlns="http://www.w3.org/2000/svg">
<path d="M65.512 0.559998C66.5787 0.559998 67.112 1.008 67.112 1.904V2.16C67.112 2.71466 66.856 3.22666 66.344 3.696C65.8747 4.16533 65.2773 4.784 64.552 5.552C63.8693 6.32 63.3573 7.216 63.016 8.24L51.112 42.416C50.2587 44.8053 48.6587 46 46.312 46C43.8373 46 42.2587 44.8907 41.576 42.672L34.92 21.872L28.264 42.416C27.496 44.8053 26.0667 46 23.976 46C22.696 46 21.7147 45.744 21.032 45.232C20.392 44.72 19.816 43.8667 19.304 42.672L4.392 8.24C3.88 7.04533 3.02667 5.89333 1.832 4.784C0.637333 3.67466 0.04 2.8 0.04 2.16V1.904C0.04 1.008 0.573333 0.559998 1.64 0.559998H19.176C20.2427 0.559998 20.776 1.008 20.776 1.904V2.16C20.776 2.672 20.4773 3.22666 19.88 3.824C19.2827 4.42133 18.7707 5.08266 18.344 5.808C17.96 6.53333 17.9387 7.344 18.28 8.24L26.28 29.936L31.848 12.336L30.504 8.24C30.2053 7.25866 29.3733 6.17066 28.008 4.976C26.6853 3.73867 26.024 2.8 26.024 2.16V1.904C26.024 1.008 26.5573 0.559998 27.624 0.559998H44.84C45.9067 0.559998 46.44 1.008 46.44 1.904V2.16C46.44 2.672 46.12 3.20533 45.48 3.76C44.84 4.272 44.264 4.89067 43.752 5.616C43.24 6.29867 43.1333 7.17333 43.432 8.24L49.192 29.68L56.104 8.24C56.4027 7.344 56.3173 6.53333 55.848 5.808C55.4213 5.08266 54.888 4.42133 54.248 3.824C53.6507 3.22666 53.352 2.672 53.352 2.16V1.904C53.352 1.008 53.8853 0.559998 54.952 0.559998H65.512ZM105.873 38.32C106.385 39.5147 107.153 40.6667 108.177 41.776C109.243 42.8853 109.777 43.76 109.777 44.4V44.656C109.777 45.552 109.243 46 108.177 46H89.5525C88.4858 46 87.9525 45.552 87.9525 44.656V44.4C87.9525 43.9733 88.1445 43.5253 88.5285 43.056C88.9552 42.5867 89.3818 42.1813 89.8085 41.84C90.2778 41.456 90.6405 40.9653 90.8965 40.368C91.1525 39.728 91.1525 39.0453 90.8965 38.32L89.8725 35.376H74.8965L73.8725 38.32C73.6165 39.0453 73.6165 39.728 73.8725 40.368C74.1285 40.9653 74.4698 41.456 74.8965 41.84C75.3658 42.1813 75.7925 42.5867 76.1765 43.056C76.6032 43.5253 76.8165 43.9733 76.8165 44.4V44.656C76.8165 45.552 76.2832 46 75.2165 46H64.7845C63.7178 46 63.1845 45.552 63.1845 44.656V44.4C63.1845 43.76 63.7178 42.9067 64.7845 41.84C65.8512 40.7733 66.6192 39.6 67.0885 38.32L78.4805 8.816C78.8645 7.792 78.5445 6.512 77.5205 4.976C76.5392 3.44 76.0485 2.50133 76.0485 2.16V1.904C76.0485 1.008 76.5818 0.559998 77.6485 0.559998H87.1205C89.3392 0.559998 90.9178 1.66933 91.8565 3.888L105.873 38.32ZM76.8165 30H88.0805L82.5765 13.808L76.8165 30Z" fill="white"/>
<path d="M171.956 35.5404C171.902 35.3248 171.687 35.163 171.471 35.2172C170.986 35.3248 170.393 35.1634 169.692 34.786C169.531 34.6784 169.423 34.5704 169.261 34.4085C168.884 33.9235 168.776 33.4384 168.668 33.2228C167.806 30.4201 165.488 29.6652 165.488 29.6652C164.787 29.3957 163.979 29.3419 163.332 29.2877H162.793H162.254C161.554 29.2339 160.637 29.1259 159.829 28.587C161.392 28.2638 164.357 27.8326 166.297 27.4551C168.345 27.0777 170.07 26.7544 170.771 26.5926C170.986 26.5388 171.148 26.3232 171.094 26.1076C171.04 25.8919 170.878 25.7301 170.663 25.7301H170.501C169.692 25.5683 168.129 25.2451 166.297 24.9214C164.572 24.5982 161.985 24.2745 160.529 23.9513C161.5 23.4663 162.308 22.8194 162.847 22.0106C163.009 21.7412 163.225 21.4718 163.494 21.0943C163.602 20.9325 163.71 20.7169 163.871 20.5555C164.141 20.1242 164.518 19.5316 164.68 19.3698C164.842 19.1541 165.273 18.9385 165.543 18.8309C166.081 18.6153 166.351 18.5077 166.944 18.5077C167.106 18.5077 167.321 18.5615 167.483 18.6153C168.022 18.7229 168.669 18.8847 169.369 18.6153C169.692 18.5077 169.962 18.3997 170.232 18.2378C170.932 17.8604 171.417 17.2678 171.741 16.567C171.849 16.4594 171.903 16.2976 171.957 16.1358C172.064 15.9202 171.957 15.6507 171.795 15.5427C171.579 15.4351 171.364 15.4889 171.202 15.6503C170.932 16.0816 170.393 16.351 169.639 16.5666C169.477 16.6204 169.261 16.6204 169.046 16.5666C168.399 16.5128 168.022 16.2434 167.806 16.1353C165.219 14.7878 163.063 15.8659 163.063 15.8659C162.362 16.1891 161.769 16.6746 161.284 17.1597C161.176 17.2672 161.014 17.3753 160.906 17.5371C160.745 17.6447 160.637 17.8065 160.475 17.9146C159.936 18.3996 158.966 19.0465 157.888 19.2621C158.804 17.8608 160.152 15.7588 161.446 13.872C162.524 12.255 163.44 10.8536 163.871 10.1529L163.979 10.0454C164.141 9.88352 164.141 9.6141 164.033 9.45228C163.871 9.29044 163.655 9.23665 163.44 9.34469C162.847 9.72214 161.391 10.6923 159.721 11.7703C158.05 12.9022 156.271 14.0879 154.924 14.9504C155.301 13.8723 155.409 12.8484 155.247 11.8783C155.193 11.5551 155.139 11.2314 155.031 10.8002C154.977 10.5846 154.924 10.3689 154.869 10.1533C154.762 9.66826 154.6 9.02138 154.6 8.75202C154.6 8.48259 154.707 7.99755 154.815 7.78193C155.031 7.24308 155.193 6.97321 155.57 6.5962C155.732 6.48861 155.893 6.38058 156.055 6.27299C156.54 5.94978 157.079 5.62611 157.403 4.92542C157.564 4.65599 157.672 4.33234 157.726 4.06292C157.941 3.30845 157.888 2.49978 157.618 1.85286C157.564 1.69102 157.564 1.52964 157.511 1.4216C157.457 1.20598 157.187 1.09839 156.972 1.15218C156.756 1.20597 156.594 1.4216 156.649 1.63722C156.756 2.12227 156.595 2.71536 156.217 3.41604C156.11 3.57787 156.002 3.68546 155.84 3.84729C155.355 4.22475 154.87 4.33234 154.654 4.44037C151.851 5.30288 151.096 7.62048 151.096 7.62048C150.827 8.32115 150.773 9.12989 150.719 9.77625V10.3151V10.8539C150.665 11.6627 150.503 12.7946 149.749 13.6566C149.371 12.0935 148.886 9.45254 148.455 7.02691C148.132 5.14054 147.808 3.46928 147.646 2.66108L147.647 2.55304C147.647 2.33742 147.485 2.12179 147.269 2.12179C147.054 2.06799 146.838 2.22938 146.784 2.445C146.623 3.14567 146.299 4.92446 145.922 7.02651C145.599 8.85916 145.221 10.9074 144.898 12.4705C144.413 11.5004 143.766 10.7455 142.957 10.1529C142.688 9.99106 142.418 9.77544 142.041 9.50602C141.879 9.39843 141.664 9.29039 141.502 9.12856C141.071 8.85914 140.478 8.48168 140.316 8.31985C140.101 8.15801 139.885 7.72677 139.778 7.45735C139.562 6.9185 139.454 6.64863 139.454 6.05606C139.454 5.89422 139.508 5.6786 139.562 5.51721C139.67 4.97836 139.831 4.33148 139.562 3.63084C139.454 3.30763 139.346 3.03776 139.185 2.76834C138.807 2.06767 138.214 1.58261 137.514 1.25892C137.406 1.15133 137.244 1.09709 137.082 1.0433C136.867 0.935708 136.597 1.0433 136.489 1.20513C136.22 1.47544 136.274 1.74487 136.489 1.85245C136.921 2.12188 137.19 2.66117 137.406 3.41559C137.459 3.57743 137.459 3.79305 137.406 4.00867C137.352 4.65555 137.082 5.03256 136.974 5.24823C135.627 7.83525 136.705 9.99159 136.705 9.99159C137.028 10.6923 137.514 11.2853 137.999 11.7704C138.106 11.878 138.214 12.0398 138.376 12.1479C138.484 12.3097 138.646 12.4173 138.754 12.5791C139.131 12.9566 140.101 14.1961 140.101 15.5975C140.047 15.5975 140.047 15.6513 139.994 15.6513C138.646 14.8426 136.275 13.2798 134.172 11.8781C132.663 10.8542 131.315 9.93743 130.615 9.50664L130.507 9.39905C130.345 9.23722 130.076 9.23722 129.914 9.34525C129.752 9.50709 129.698 9.72271 129.806 9.93833C130.184 10.5314 131.154 12.0404 132.34 13.7654C133.418 15.3823 134.603 17.1611 135.466 18.5087C134.55 18.2393 133.687 18.1855 132.825 18.3469C132.501 18.4007 132.178 18.4545 131.747 18.5625C131.531 18.6163 131.315 18.6701 131.1 18.7243C130.615 18.8319 129.968 18.9938 129.698 18.9938C129.429 18.9938 128.944 18.8862 128.728 18.7781C128.189 18.5625 127.92 18.4007 127.543 18.0237C127.435 17.8618 127.327 17.7005 127.219 17.5386C126.896 17.0536 126.572 16.5147 125.872 16.1911C125.602 16.0292 125.279 15.9216 125.009 15.8678C124.254 15.7589 123.499 15.7589 122.799 16.0288C122.637 16.0826 122.475 16.0826 122.367 16.1364C122.152 16.1902 122.044 16.4596 122.098 16.6752C122.152 16.8909 122.367 17.0527 122.583 16.9984C123.068 16.8909 123.661 17.0522 124.362 17.4297C124.524 17.5373 124.631 17.6453 124.793 17.8072C125.171 18.2922 125.278 18.7772 125.386 18.9929C126.249 21.7956 128.566 22.5505 128.566 22.5505C129.267 22.8199 130.076 22.8737 130.722 22.928H131.261H131.8C132.447 22.9818 133.255 23.0898 133.956 23.521C132.339 23.8985 130.129 24.3298 127.918 24.7068C126.032 25.03 124.361 25.3537 123.553 25.5155L123.445 25.515C123.23 25.515 123.014 25.6769 123.014 25.8925C122.96 26.1081 123.122 26.3238 123.337 26.3775C124.038 26.5394 125.817 26.9164 127.919 27.2938C129.86 27.6713 131.8 28.1026 133.363 28.4258C132.447 28.9108 131.692 29.5039 131.153 30.3121C130.991 30.5816 130.775 30.851 130.506 31.2284C130.398 31.3903 130.29 31.6059 130.129 31.7673C129.859 32.1985 129.482 32.7912 129.32 32.953C129.158 33.1686 128.727 33.3843 128.457 33.4919C127.919 33.7075 127.649 33.8151 127.056 33.8151C126.894 33.8151 126.679 33.7613 126.517 33.7075C125.978 33.5999 125.331 33.4381 124.631 33.7075C124.308 33.8151 124.038 33.9231 123.768 34.0849C123.068 34.4624 122.583 35.055 122.259 35.7557C122.151 35.8633 122.097 36.0252 122.043 36.187C121.936 36.4026 122.043 36.672 122.205 36.7801C122.475 37.0499 122.745 36.9419 122.852 36.7805C123.122 36.3493 123.661 36.0799 124.416 35.8642C124.577 35.8104 124.793 35.8104 125.009 35.8642C125.656 35.918 126.033 36.1874 126.248 36.2955C128.835 37.643 130.992 36.5649 130.992 36.5649C131.692 36.2417 132.285 35.7562 132.77 35.2712C132.878 35.1636 133.04 35.0555 133.148 34.8937C133.31 34.7861 133.417 34.6243 133.579 34.5163C134.118 34.085 134.927 33.4924 135.897 33.2225C134.98 34.6238 133.633 36.6721 132.393 38.5047C131.315 40.1216 130.345 41.5768 129.914 42.2779L129.806 42.3855C129.645 42.5473 129.645 42.8167 129.753 42.9785C129.86 43.0861 129.968 43.1404 130.13 43.1404C130.184 43.1404 130.292 43.1404 130.346 43.0866C130.939 42.7091 132.394 41.739 134.119 40.6071C135.844 39.4752 137.73 38.1815 139.078 37.3193C138.755 38.2894 138.7 39.26 138.862 40.1763C138.916 40.4995 138.97 40.8232 139.078 41.2545C139.132 41.4701 139.185 41.6857 139.24 41.9013C139.347 42.3864 139.509 43.0333 139.509 43.3026C139.509 43.5721 139.401 44.0571 139.293 44.2727C139.078 44.8116 138.916 45.0814 138.539 45.4585C138.377 45.566 138.216 45.6741 138.054 45.7817C137.569 46.1049 137.03 46.4285 136.706 47.1292C136.545 47.3987 136.437 47.7223 136.383 47.9917C136.168 48.7462 136.221 49.5549 136.491 50.2018C136.545 50.3636 136.545 50.525 136.598 50.633C136.652 50.8487 136.922 50.9563 137.137 50.9025C137.353 50.8487 137.515 50.633 137.46 50.4174C137.353 49.9324 137.514 49.3393 137.892 48.6386C137.999 48.4768 138.107 48.3692 138.269 48.2074C138.754 47.8299 139.239 47.7223 139.455 47.6143C142.258 46.7518 143.012 44.4342 143.012 44.4342C143.282 43.7335 143.336 42.9248 143.39 42.2784V41.7396V41.2007C143.444 40.392 143.659 39.3143 144.36 38.5056C144.737 40.1225 145.169 43.1409 145.6 45.351C145.977 47.453 146.3 49.2856 146.462 49.9325C146.516 50.1481 146.678 50.2557 146.893 50.2557H146.947C147.163 50.2019 147.325 50.0401 147.325 49.8244L147.324 49.7169C147.486 48.9081 147.809 47.2912 148.186 45.4047C148.564 43.4104 148.995 40.7152 149.372 39.0982C149.857 40.284 150.612 41.2003 151.528 41.8471C151.797 42.0089 152.067 42.2246 152.444 42.494C152.606 42.6016 152.821 42.7096 152.983 42.8714C153.414 43.1409 154.007 43.5183 154.169 43.6802C154.384 43.842 154.6 44.2732 154.707 44.5427C154.923 45.0815 155.031 45.3514 155.031 45.9439C155.031 46.1058 154.977 46.3214 154.923 46.4828C154.815 47.0216 154.654 47.6685 154.923 48.3692C155.031 48.6924 155.139 48.9622 155.301 49.2317C155.678 49.9323 156.271 50.4174 156.971 50.7411C157.079 50.8487 157.241 50.9029 157.403 50.9567C157.618 51.0643 157.888 50.9567 157.996 50.7949C158.103 50.5792 158.049 50.3636 157.888 50.2018C157.457 49.9324 157.187 49.3931 156.972 48.6387C156.918 48.4768 156.918 48.2612 156.972 48.0456C157.026 47.3987 157.295 47.0217 157.403 46.806C158.751 44.219 157.672 42.0627 157.672 42.0627C157.349 41.362 156.864 40.7689 156.379 40.2838C156.271 40.1763 156.163 40.0144 156.001 39.9064C155.894 39.7446 155.732 39.637 155.624 39.4751C155.139 38.8821 154.438 37.9657 154.276 36.8338C155.678 37.6963 157.78 39.1514 159.666 40.4452C161.23 41.5233 162.631 42.4934 163.332 42.9246L163.439 43.0322C163.547 43.1398 163.655 43.1398 163.762 43.1398C163.87 43.1398 163.978 43.086 164.032 43.0322C164.194 42.8704 164.247 42.6548 164.139 42.4391C163.762 41.8461 162.684 40.2834 161.444 38.5583C160.259 36.8333 158.911 34.9469 157.995 33.5994C159.019 33.9768 160.097 34.0844 161.067 33.9226C161.39 33.8688 161.714 33.815 162.145 33.707C162.361 33.6532 162.576 33.5994 162.792 33.5451C163.277 33.4375 163.924 33.2757 164.193 33.2757C164.462 33.2757 164.948 33.3833 165.163 33.4913C165.702 33.7069 165.972 33.8688 166.349 34.2458C166.456 34.4076 166.565 34.569 166.672 34.7308C166.995 35.2159 167.319 35.7547 168.02 36.0784C168.289 36.2402 168.613 36.3478 168.882 36.4016C169.637 36.6172 170.445 36.5634 171.092 36.294C171.254 36.2402 171.415 36.2402 171.524 36.1864C171.848 36.0255 172.01 35.7561 171.956 35.5404H171.956ZM159.613 27.725C159.667 27.3475 159.667 26.9705 159.721 26.5931H166.135C164.086 26.9705 161.338 27.3475 159.613 27.725H159.613ZM146.892 14.8969C148.347 14.8969 149.695 15.1663 150.988 15.5976C155.192 17.2145 158.157 21.311 158.157 26.0543C158.157 32.199 153.144 37.2656 146.946 37.2656C140.747 37.2656 135.734 32.2528 135.734 26.0543C135.734 23.8986 136.327 21.9041 137.405 20.1791C137.459 20.1253 137.513 20.0172 137.567 19.9634C139.076 17.6458 141.448 15.9207 144.25 15.2201C145.059 15.0045 145.975 14.8969 146.892 14.8969L146.892 14.8969ZM165.918 25.7307H159.72C159.72 25.3533 159.666 24.9762 159.612 24.6526C161.283 24.9225 163.978 25.3537 165.918 25.7307H165.918ZM166.889 17.5379C166.188 17.5379 165.488 17.7535 164.841 18.0767C163.871 18.5617 163.331 19.5861 163.062 20.0174C162.954 20.1792 162.846 20.3948 162.739 20.5562C162.523 20.9337 162.307 21.2031 162.146 21.4725C161.445 22.4426 160.421 23.0895 159.397 23.4669C159.289 23.0894 159.235 22.7662 159.073 22.3888C160.152 22.1193 161.229 21.4187 162.038 20.1249C162.2 19.8554 162.792 18.8853 162.954 18.6697C163.386 18.1847 164.302 17.7534 164.571 17.6996C165.38 17.484 166.134 17.4302 166.889 17.5378L166.889 17.5379ZM160.96 18.616C161.122 18.5084 161.229 18.3466 161.391 18.2385C161.499 18.1309 161.66 18.0229 161.768 17.9153C162.2 17.4841 162.847 16.7834 164.086 16.6216C164.949 16.514 165.703 16.4598 166.458 16.6754C165.757 16.6216 165.11 16.783 164.463 16.9448C164.194 16.9986 163.116 17.3223 162.469 18.1305C162.361 18.2381 161.283 19.8555 161.283 19.9093C160.906 20.61 160.044 21.3106 158.857 21.5802C158.642 21.0951 158.426 20.6639 158.157 20.1789C159.073 19.9637 160.044 19.4244 160.96 18.6162L160.96 18.616ZM160.636 13.3876C159.397 15.2202 158.049 17.2684 157.133 18.7235C156.863 18.4003 156.594 18.0229 156.27 17.6997L160.744 13.2257C160.69 13.2795 160.636 13.3337 160.636 13.3875L160.636 13.3876ZM160.151 12.5251C160.151 12.5251 160.205 12.5251 160.151 12.5251L155.623 17.1066C155.3 16.7834 154.923 16.5135 154.545 16.2441C155.947 15.382 158.157 13.8726 160.151 12.525L160.151 12.5251ZM154.923 5.89533C154.384 6.43417 154.06 7.02725 153.791 7.72798C153.467 8.69807 153.791 9.83003 153.898 10.315C153.952 10.5306 154.006 10.7463 154.06 10.9619C154.168 11.3931 154.222 11.7163 154.276 12.04C154.491 13.3337 154.114 14.5733 153.629 15.5976C153.306 15.382 152.982 15.2202 152.659 15.0588C153.359 14.0349 153.683 12.7412 153.306 11.1242C153.252 10.801 152.982 9.72292 152.928 9.4534C152.874 8.80652 153.251 7.83643 153.413 7.62075C153.737 6.97343 154.276 6.3804 154.923 5.89532L154.923 5.89533ZM151.473 10.8543V10.2612V9.77612C151.527 9.18305 151.419 8.26671 152.174 7.24283C152.712 6.54216 153.252 6.00327 153.899 5.62586C153.36 6.1109 153.036 6.64975 152.659 7.24283C152.497 7.51225 151.958 8.42855 152.066 9.50672C152.066 9.66856 152.443 11.6088 152.443 11.6088C152.659 12.4713 152.551 13.657 151.743 14.7352C151.258 14.5195 150.773 14.3577 150.288 14.2501C150.988 13.3876 151.365 12.2557 151.473 10.8543L151.473 10.8543ZM148.778 13.9263C148.347 13.8726 147.969 13.8188 147.538 13.8188V7.40471C147.915 9.77616 148.401 12.3632 148.778 13.9264V13.9263ZM146.622 7.18906V13.765C146.191 13.765 145.76 13.8188 145.328 13.8725C145.706 12.2556 146.191 9.56043 146.622 7.18898V7.18906ZM138.375 6.05714C138.375 6.81161 138.59 7.51226 138.914 8.15919C139.399 9.12928 140.423 9.6686 140.854 9.938C141.016 10.0456 141.232 10.1536 141.393 10.2612C141.771 10.4768 142.04 10.6925 142.31 10.8543C143.441 11.663 144.035 12.8487 144.412 13.9807C144.034 14.0345 143.657 14.1425 143.28 14.2501C143.064 13.0105 142.363 11.8787 140.908 10.9623C140.639 10.8005 139.669 10.2079 139.453 10.046C138.968 9.61477 138.537 8.69846 138.483 8.42906C138.321 7.67414 138.267 6.86546 138.375 6.05715L138.375 6.05714ZM139.453 12.0399C139.345 11.8781 139.184 11.7705 139.076 11.6087C138.968 11.5011 138.86 11.3393 138.752 11.2312C138.321 10.8 137.62 10.1531 137.459 8.91361C137.351 8.05111 137.297 7.29664 137.512 6.54216C137.459 7.24283 137.62 7.88973 137.782 8.53654C137.836 8.80597 138.159 9.88411 138.968 10.5309C139.075 10.6385 140.693 11.7166 140.746 11.7166C141.501 12.1479 142.31 13.1179 142.471 14.4655C141.986 14.6273 141.501 14.843 141.07 15.0586C140.854 14.0881 140.316 13.0642 139.453 12.0399L139.453 12.0399ZM139.237 16.1902C138.86 16.4596 138.537 16.7291 138.159 17.0527L133.74 12.633C135.68 13.9263 137.836 15.3277 139.237 16.1902L139.237 16.1902ZM133.147 13.3337C133.093 13.2799 133.039 13.2261 133.039 13.1181L137.567 17.6457C137.244 17.9689 136.974 18.2926 136.704 18.6696C135.734 17.2683 134.386 15.22 133.147 13.3336L133.147 13.3337ZM126.948 18.6697C127.487 19.1547 128.08 19.4784 128.781 19.7478C129.751 20.071 130.883 19.7478 131.368 19.6402C131.583 19.5864 131.799 19.5326 132.014 19.4784C132.446 19.3708 132.769 19.3165 133.093 19.2628C134.117 19.1009 135.141 19.2628 136.003 19.6402C135.788 19.9634 135.626 20.2871 135.465 20.6103C134.602 20.179 133.524 20.0172 132.231 20.3409C131.907 20.3947 130.829 20.6641 130.56 20.7183C129.913 20.7721 128.943 20.3951 128.727 20.2333C127.972 19.8016 127.379 19.2628 126.948 18.6697L126.948 18.6697ZM131.853 22.1193H131.26H130.775C130.182 22.0655 129.266 22.1731 128.242 21.4186C127.541 20.8798 127.002 20.3405 126.625 19.6936C127.11 20.2325 127.649 20.5561 128.242 20.9332C128.511 21.095 129.427 21.6339 130.506 21.5263C130.667 21.5263 132.608 21.1488 132.608 21.1488C133.308 20.9332 134.171 20.987 135.087 21.472C134.872 21.9033 134.71 22.3883 134.602 22.8733C133.793 22.443 132.877 22.1735 131.853 22.1193L131.853 22.1193ZM134.171 24.4912C134.117 24.8687 134.063 25.2457 134.063 25.6769H128.349C130.506 25.2457 132.661 24.8144 134.171 24.4912H134.171ZM128.08 26.5932C128.026 26.5932 127.918 26.5394 127.864 26.5394H134.063C134.063 26.9707 134.117 27.4558 134.171 27.887C132.554 27.5096 130.29 27.0245 128.08 26.5933L128.08 26.5932ZM127.11 34.8399C127.81 34.8399 128.511 34.6243 129.158 34.3011C130.128 33.8161 130.667 32.7917 130.937 32.3604C131.044 32.1986 131.152 31.983 131.26 31.8216C131.476 31.4441 131.691 31.1747 131.853 30.9053C132.5 29.989 133.47 29.3959 134.386 29.0189C134.494 29.3964 134.602 29.7196 134.71 30.0428C133.686 30.366 132.715 31.0129 131.907 32.2529C131.745 32.5223 131.152 33.4924 130.991 33.708C130.559 34.193 129.643 34.6243 129.374 34.6781C128.619 34.948 127.864 34.948 127.11 34.8399L127.11 34.8399ZM133.039 33.8161C132.877 33.9236 132.769 34.0855 132.608 34.1935C132.5 34.3011 132.338 34.4091 132.23 34.5167C131.799 34.948 131.152 35.6486 129.912 35.8105C129.05 35.918 128.296 35.9723 127.541 35.7567C128.242 35.8105 128.889 35.6491 129.535 35.4872C129.805 35.4334 130.883 35.1098 131.53 34.3015C131.637 34.1939 132.716 32.5765 132.716 32.5227C133.093 31.822 133.901 31.1751 134.979 30.9057C135.195 31.3908 135.411 31.822 135.68 32.307C134.871 32.5222 133.901 33.0072 133.039 33.816L133.039 33.8161ZM133.201 38.9364C134.44 37.1037 135.788 35.0555 136.704 33.6542C136.973 33.9774 137.243 34.3011 137.567 34.6243L133.093 39.0983C133.093 39.0445 133.147 38.9902 133.201 38.9364L133.201 38.9364ZM133.632 39.7989C133.632 39.7989 133.578 39.7989 133.578 39.8527L138.16 35.2711C138.483 35.5944 138.86 35.8642 139.238 36.1337C137.89 36.9419 135.68 38.4513 133.632 39.7988L133.632 39.7989ZM139.13 46.1054C139.669 45.5665 139.992 44.9734 140.262 44.2727C140.585 43.3026 140.262 42.1707 140.154 41.6857C140.1 41.4701 140.047 41.2544 139.992 41.0388C139.885 40.6076 139.83 40.2843 139.777 39.9607C139.561 38.8288 139.83 37.6968 140.262 36.7267C140.585 36.8886 140.909 37.1042 141.232 37.2118C140.693 38.1819 140.477 39.3676 140.801 40.8231C140.854 41.1463 141.124 42.2244 141.178 42.4939C141.232 43.1408 140.855 44.1109 140.693 44.3266C140.262 45.0273 139.777 45.6203 139.13 46.1054L139.13 46.1054ZM142.579 41.1464V41.7395V42.2246C142.526 42.8176 142.633 43.734 141.879 44.7579C141.34 45.4585 140.801 45.9974 140.154 46.3748C140.693 45.8898 141.016 45.3509 141.393 44.7579C141.555 44.4884 142.094 43.5721 141.986 42.494C141.986 42.3321 141.609 40.3919 141.609 40.3919C141.393 39.6374 141.501 38.5593 142.094 37.5349C142.579 37.6968 143.064 37.8581 143.549 38.02C143.011 38.8825 142.687 39.9063 142.579 41.1464L142.579 41.1464ZM146.568 45.1891C146.137 42.8715 145.652 40.0145 145.328 38.3976C145.76 38.4514 146.137 38.4514 146.568 38.5052V45.1891ZM147.43 45.1891V38.4514C147.862 38.4514 148.293 38.3976 148.724 38.3438C148.347 40.0683 147.862 42.9792 147.43 45.1892V45.1891ZM156.001 45.9436C156.001 45.1891 155.785 44.4885 155.462 43.8416C154.977 42.8715 153.953 42.3322 153.521 42.0628C153.359 41.9552 153.144 41.8471 152.982 41.7395C152.605 41.5239 152.336 41.3083 152.066 41.1465C150.988 40.392 150.341 39.2058 150.018 38.1281C150.395 38.0205 150.772 37.9125 151.096 37.8049C151.312 38.9906 152.012 40.1763 153.414 41.0926C153.683 41.2545 154.653 41.8471 154.869 42.009C155.354 42.4402 155.785 43.3565 155.839 43.6259C156.054 44.3266 156.108 45.1349 156.001 45.9435L156.001 45.9436ZM154.976 39.9608C155.084 40.1227 155.246 40.2302 155.354 40.3921C155.461 40.4997 155.57 40.6615 155.677 40.7695C156.108 41.2008 156.809 41.8477 156.971 43.0871C157.078 43.9496 157.133 44.7041 156.917 45.4586C156.971 44.7579 156.809 44.111 156.648 43.4642C156.594 43.1948 156.27 42.1166 155.462 41.4698C155.354 41.3622 153.737 40.2841 153.683 40.2841C152.929 39.8528 152.12 38.8828 151.958 37.5352C152.443 37.3196 152.874 37.104 153.359 36.8346C153.521 37.8585 154.06 38.9366 154.976 39.961L154.976 39.9608ZM154.653 35.9719C154.976 35.7025 155.3 35.4331 155.623 35.1632L160.043 39.5829C158.157 38.2358 156.055 36.8345 154.653 35.9719L154.653 35.9719ZM160.69 38.9365L156.27 34.5168C156.54 34.2474 156.809 33.9237 157.025 33.6543C157.941 35.0556 159.397 37.1039 160.69 38.9365L160.69 38.9365ZM167.05 33.5468C166.511 33.0617 165.918 32.7381 165.218 32.4686C164.247 32.1454 163.116 32.4686 162.631 32.5762C162.415 32.63 162.199 32.6838 161.984 32.7381C161.552 32.8456 161.229 32.8999 160.906 32.9537C159.774 33.1155 158.75 32.8999 157.779 32.5224C157.995 32.1992 158.157 31.9293 158.318 31.6061C159.234 32.0912 160.366 32.3068 161.768 31.9836C162.091 31.9298 163.169 31.6604 163.438 31.6061C164.085 31.5523 165.055 31.9293 165.271 32.0912C166.026 32.4148 166.62 32.9537 167.05 33.5467L167.05 33.5468ZM165.811 31.3905C165.541 31.2287 164.625 30.6899 163.547 30.7975C163.385 30.7975 161.445 31.1749 161.445 31.1749C160.69 31.3905 159.72 31.3368 158.75 30.7975C158.965 30.3124 159.127 29.8274 159.235 29.3423C159.989 29.7736 160.96 30.043 162.092 30.151H162.685H163.17C163.763 30.2048 164.679 30.0973 165.703 30.8517C166.404 31.3906 166.943 31.9299 167.32 32.5767C166.943 32.0912 166.404 31.7138 165.811 31.3905L165.811 31.3905ZM149.101 33.6544C148.563 34.6783 147.431 34.7326 146.029 34.4632C145.922 34.4094 145.814 34.4094 145.76 34.3556C145.49 34.1937 145.329 33.9243 145.275 33.4931C145.382 33.5469 145.544 33.6006 145.652 33.6006C145.76 33.6544 145.922 33.6544 146.03 33.7082C147.054 33.8701 147.809 34.0314 148.994 33.4388C149.101 33.4926 149.101 33.6006 149.101 33.6544H149.101ZM149.856 31.6062C150.018 31.6062 150.287 31.6062 150.449 31.4986C150.557 31.4448 151.15 31.0136 151.258 31.0136C151.365 31.0136 151.581 31.6067 151.743 31.7143L151.635 31.768C151.581 31.8218 151.204 31.4448 151.096 31.5524C151.096 31.5524 150.934 31.6062 150.827 31.768C150.611 31.9299 150.449 32.1993 150.18 32.1993C149.048 32.3069 148.239 31.6605 147.377 32.5768C147.108 32.6844 146.946 32.6844 146.677 32.5768C146.623 32.5768 146.515 32.523 146.461 32.523C146.245 32.3073 146.03 32.2535 145.76 32.3073C145.653 32.3073 145.598 32.3611 145.491 32.3611C144.79 32.6306 143.658 32.3073 143.119 31.6605C142.958 31.4986 142.419 32.0917 142.365 31.8223C142.473 31.8761 143.119 30.8522 143.174 30.8522C143.174 30.8522 143.281 31.2297 143.389 31.2835C144.144 31.6067 144.899 31.7685 145.707 31.3911C145.815 31.3911 145.976 31.2835 146.084 31.2835C146.408 31.2835 146.623 31.3911 146.947 31.4991C147.001 31.4991 147.109 31.5529 147.163 31.5529C147.216 31.5529 147.324 31.4991 147.378 31.4991C147.701 31.4453 147.863 31.1759 148.187 31.1759H148.51C148.726 31.2297 149.211 31.3915 149.373 31.4453C149.586 31.6062 149.748 31.6062 149.856 31.6062L149.856 31.6062ZM141.825 21.5269C140.531 21.5807 139.615 22.4432 138.591 23.09C138.698 21.3112 140.747 20.5567 142.31 20.6644C142.472 20.6644 142.687 20.6644 142.849 20.7182C143.011 20.772 143.226 20.772 143.388 20.8258C143.549 20.8796 143.657 20.8796 143.819 20.9334C144.088 21.0409 144.358 21.149 144.573 21.3108C144.681 21.3646 144.735 21.4184 144.843 21.5264C145.058 21.7421 145.22 22.0115 145.166 22.3889C145.058 22.3351 145.004 22.2813 144.897 22.2813C144.789 22.2276 144.735 22.2276 144.627 22.1738C143.334 21.4188 141.932 21.5269 141.825 21.5269L141.825 21.5269ZM145.436 28.9111C145.705 28.8035 146.137 29.3961 146.675 29.3961C146.783 29.3961 147.699 29.558 148.346 28.426C148.4 28.4798 148.4 28.5336 148.454 28.6417V28.6954C148.561 29.0729 148.561 29.558 148.292 29.7736C148.238 29.8274 148.184 29.8812 148.076 29.9354C147.807 30.0973 147.538 30.2048 147.214 30.2586H146.998C146.783 30.3124 146.513 30.2586 146.244 30.151C146.136 30.0972 146.082 30.0972 146.028 30.0434C145.706 29.8274 144.951 29.1267 145.436 28.9111L145.436 28.9111ZM147.97 26.5935C147.97 26.4316 147.916 25.731 147.97 25.2459C147.97 25.1383 148.023 24.3834 148.077 23.7365C148.077 23.5746 148.131 23.4133 148.131 23.2514C148.4 21.742 149.802 20.6101 151.311 20.6101H151.689H152.066C152.174 20.6101 152.335 20.6639 152.497 20.6639C152.659 20.6639 152.767 20.7177 152.929 20.7177C153.629 20.9871 154.869 20.9871 155.139 21.9573C154.276 21.5798 153.36 21.4184 152.443 21.3104C151.689 21.2028 150.934 21.3642 150.773 21.418C148.94 21.7412 148.617 24.7599 148.563 25.0832C148.563 25.1908 148.509 25.3526 148.509 25.4606C148.455 25.8381 148.401 26.2151 148.401 26.5926C148.401 26.7001 148.294 26.8082 148.186 26.7544C148.077 26.8091 147.97 26.701 147.97 26.5934L147.97 26.5935ZM154.599 23.6828C154.114 23.4133 153.629 22.9821 152.821 22.9283H152.659C152.336 22.9283 152.012 22.9821 151.689 23.0901C151.527 23.1439 151.311 23.1977 150.61 23.5214C150.503 23.5752 150.179 23.6832 150.072 23.9526C150.072 23.9526 150.018 24.1683 150.233 24.2758C150.341 24.3296 150.557 24.222 150.719 24.1683C151.096 24.0064 150.988 24.0607 151.312 23.9526C151.365 23.9526 151.85 23.6832 152.012 23.7908C151.85 23.8446 151.365 24.1678 151.311 24.2758C151.257 24.5991 151.419 24.8147 151.689 25.0303C151.958 25.2459 153.683 25.4616 153.953 24.0602C154.707 24.2221 154.923 24.2221 154.815 23.8446C154.761 23.7908 154.599 23.7366 154.599 23.6828L154.599 23.6828ZM153.252 24.1678C152.497 24.3296 152.389 24.0602 152.443 23.7365C152.659 23.4671 153.252 23.4133 153.467 23.7365C153.791 23.9522 153.575 24.114 153.252 24.1678ZM143.927 23.5209C143.549 23.2515 143.118 23.0359 142.633 22.9821C142.526 22.9821 142.418 22.9283 142.256 22.9283H141.932C141.178 22.9821 140.423 23.3057 140.1 23.629C140.046 23.6827 139.722 23.8984 139.884 24.114C140.046 24.3296 140.531 24.0602 140.962 23.8984C141.016 23.8984 141.07 23.8446 141.07 23.8446C142.364 23.4133 141.07 24.114 141.124 24.114V24.2216C141.124 24.3834 141.501 25.2997 142.956 25.1379C143.549 25.0841 143.549 24.8147 143.819 24.3834C143.873 24.3296 143.981 24.2758 144.035 24.2216C144.088 24.2216 144.142 24.1678 144.196 24.1678C144.304 24.114 144.52 24.1678 144.52 24.006C144.52 24.0064 144.089 23.5751 143.927 23.5209L143.927 23.5209ZM143.549 24.0602C143.549 24.2758 143.28 24.2758 142.956 24.2758C142.687 24.3296 142.148 24.114 142.148 23.8984C142.202 23.2515 143.496 23.5209 143.549 24.0602H143.549Z" fill="white"/>
</svg>
